<?xml version="1.0" standalone="no"?><!DOCTYPE svg PUBLIC "-//W3C//DTD SVG 1.1//EN" "http://www.w3.org/Graphics/SVG/1.1/DTD/svg11.dtd"><svg t="1706183717145" class="icon" viewBox="0 0 1024 1024" version="1.1" xmlns="http://www.w3.org/2000/svg" p-id="4440" xmlns:xlink="http://www.w3.org/1999/xlink" width="128" height="128"><path d="M71 854v50c0 2.8-2.3 5-5 5s-5-2.3-5-5v-50c0-2.8 2.2-5 5-5s5 2.3 5 5z" fill="#333333" p-id="4441"></path><path d="M116 859H66c-2.7 0-5-2.3-5-5 0-2.8 2.2-5 5-5h50c2.7 0 5 2.3 5 5 0 2.8-2.2 5-5 5zM431 662c-2.8 0-5 2.2-5 5v256h10V667c0-2.8-2.2-5-5-5zM485 662c-2.8 0-5 2.2-5 5v256h10V667c0-2.8-2.2-5-5-5zM539 662c-2.8 0-5 2.2-5 5v256h10V667c0-2.8-2.2-5-5-5zM593 662c-2.8 0-5 2.2-5 5v256h10V667c0-2.8-2.2-5-5-5z" fill="#333333" p-id="4442"></path><path d="M156.1 817v-19h0.4c1.4 0 2.5-1.1 2.5-2.5s-1.1-2.5-2.5-2.5h-0.4v-31h0.4c1.4 0 2.5-1.1 2.5-2.5s-1.1-2.5-2.5-2.5h-0.4v-31h0.4c1.4 0 2.5-1.1 2.5-2.5s-1.1-2.5-2.5-2.5h-0.4v-31h0.4c1.4 0 2.5-1.1 2.5-2.5s-1.1-2.5-2.5-2.5h-0.4v-33c0-11-9-20-20-20s-20 9-20 20v33h-0.6c-1.4 0-2.5 1.1-2.5 2.5s1.1 2.5 2.5 2.5h0.6v31h-0.6c-1.4 0-2.5 1.1-2.5 2.5s1.1 2.5 2.5 2.5h0.6v31h-0.6c-1.4 0-2.5 1.1-2.5 2.5s1.1 2.5 2.5 2.5h0.6v31h-0.6c-1.4 0-2.5 1.1-2.5 2.5s1.1 2.5 2.5 2.5h0.6v19l-3 23v83h46v-83l-3-23zM285.8 908H283V191c0-13.8-11.2-25-25-25s-25 11.2-25 25v717h-2.8l-4.2 15h64l-4.2-15z" fill="#333333" p-id="4443"></path><path d="M245 899h-90c-2.8 0-5-2.3-5-5 0-2.8 2.3-5 5-5h90c2.8 0 5 2.3 5 5 0 2.8-2.2 5-5 5zM245 859h-90c-2.8 0-5-2.3-5-5 0-2.8 2.3-5 5-5h90c2.8 0 5 2.3 5 5 0 2.8-2.2 5-5 5zM788 859l-54 1c-2.8 0-5-2.3-5-5 0-2.8 2.3-5 5-5l54-1c2.8 0 5 2.3 5 5 0 2.8-2.2 5-5 5zM687 859h-90c-2.8 0-5-2.3-5-5 0-2.8 2.3-5 5-5h90c2.8 0 5 2.3 5 5 0 2.8-2.2 5-5 5zM365 899h-90c-2.8 0-5-2.3-5-5 0-2.8 2.3-5 5-5h90c2.8 0 5 2.3 5 5 0 2.8-2.2 5-5 5z" fill="#333333" p-id="4444"></path><path d="M430 899h-90c-2.8 0-5-2.3-5-5 0-2.8 2.3-5 5-5h90c2.8 0 5 2.3 5 5 0 2.8-2.2 5-5 5zM426 869h172v10H426zM426 815h172v10H426zM426 761h172v10H426zM426 707h172v10H426zM590 889h70v10h-70zM792 899l-34 1v-10l34-1z" fill="#333333" p-id="4445"></path><path d="M792 713c-2.8 0-5 2.2-5 5v205h10V718c0-2.8-2.2-5-5-5zM846 713c-2.8 0-5 2.2-5 5v205h10V718c0-2.8-2.2-5-5-5zM900 713c-2.8 0-5 2.2-5 5v205h10V718c0-2.8-2.2-5-5-5z" fill="#333333" p-id="4446"></path><path d="M787 869h118v10H787M787 815h118v10H787M787 761h118v10H787M950 854v50c0 2.8 2.3 5 5 5 2.8 0 5-2.3 5-5v-50c0-2.8-2.3-5-5-5s-5 2.3-5 5z" fill="#333333" p-id="4447"></path><path d="M905 859h50c2.8 0 5-2.3 5-5 0-2.8-2.3-5-5-5h-50c-2.8 0-5 2.3-5 5 0 2.8 2.3 5 5 5z" fill="#333333" p-id="4448"></path><path d="M457.6 746.8m-11.4 0a11.4 11.4 0 1 0 22.8 0 11.4 11.4 0 1 0-22.8 0Z" fill="#333333" p-id="4449"></path><path d="M450.5 754.6h14.2v6.4h-14.2z" fill="#333333" p-id="4450"></path><path d="M818.6 746.8m-11.4 0a11.4 11.4 0 1 0 22.8 0 11.4 11.4 0 1 0-22.8 0Z" fill="#333333" p-id="4451"></path><path d="M811.5 754.6h14.2v6.4h-14.2z" fill="#333333" p-id="4452"></path><path d="M872.6 854.8m-11.4 0a11.4 11.4 0 1 0 22.8 0 11.4 11.4 0 1 0-22.8 0Z" fill="#333333" p-id="4453"></path><path d="M865.5 862.6h14.2v6.4h-14.2z" fill="#333333" p-id="4454"></path><path d="M511.6 800.8m-11.4 0a11.4 11.4 0 1 0 22.8 0 11.4 11.4 0 1 0-22.8 0Z" fill="#333333" p-id="4455"></path><path d="M504.5 808.6h14.2v6.4h-14.2z" fill="#333333" p-id="4456"></path><path d="M566.6 908.8m-11.4 0a11.4 11.4 0 1 0 22.8 0 11.4 11.4 0 1 0-22.8 0Z" fill="#333333" p-id="4457"></path><path d="M559.5 916.6h14.2v6.4h-14.2z" fill="#333333" p-id="4458"></path><path d="M457.6 854.8m-11.4 0a11.4 11.4 0 1 0 22.8 0 11.4 11.4 0 1 0-22.8 0Z" fill="#333333" p-id="4459"></path><path d="M450.5 862.6h14.2v6.4h-14.2z" fill="#333333" p-id="4460"></path><path d="M565.6 746.8m-11.4 0a11.4 11.4 0 1 0 22.8 0 11.4 11.4 0 1 0-22.8 0Z" fill="#333333" p-id="4461"></path><path d="M558.5 754.6h14.2v6.4h-14.2zM156.1 817v-19h0.4c1.4 0 2.5-1.1 2.5-2.5s-1.1-2.5-2.5-2.5h-0.4v-31h0.4c1.4 0 2.5-1.1 2.5-2.5s-1.1-2.5-2.5-2.5h-0.4v-31h0.4c1.4 0 2.5-1.1 2.5-2.5s-1.1-2.5-2.5-2.5h-0.4v-31h0.4c1.4 0 2.5-1.1 2.5-2.5s-1.1-2.5-2.5-2.5h-0.4v-33c0-11-9-20-20-20s-20 9-20 20v33h-0.6c-1.4 0-2.5 1.1-2.5 2.5s1.1 2.5 2.5 2.5h0.6v31h-0.6c-1.4 0-2.5 1.1-2.5 2.5s1.1 2.5 2.5 2.5h0.6v31h-0.6c-1.4 0-2.5 1.1-2.5 2.5s1.1 2.5 2.5 2.5h0.6v31h-0.6c-1.4 0-2.5 1.1-2.5 2.5s1.1 2.5 2.5 2.5h0.6v19l-3 23v83h46v-83l-3-23zM116.2 421h-14.3c-2.8 0-5-2.3-5-5 0-2.8 2.3-5 5-5h14.3c2.8 0 5 2.3 5 5s-2.2 5-5 5z" fill="#333333" p-id="4462"></path><path d="M103.4 410.3m-4.1 0a4.1 4.1 0 1 0 8.2 0 4.1 4.1 0 1 0-8.2 0Z" fill="#333333" p-id="4463"></path><path d="M109.1 408.1m-4.1 0a4.1 4.1 0 1 0 8.2 0 4.1 4.1 0 1 0-8.2 0Z" fill="#333333" p-id="4464"></path><path d="M114.9 411m-4.1 0a4.1 4.1 0 1 0 8.2 0 4.1 4.1 0 1 0-8.2 0Z" fill="#333333" p-id="4465"></path><path d="M505 95h-23.6c-4.5 0-8.3-3.7-8.3-8.3 0-4.5 3.7-8.3 8.3-8.3H505c4.5 0 8.3 3.7 8.3 8.3-0.1 4.6-3.8 8.3-8.3 8.3z" fill="#333333" p-id="4466"></path><path d="M483.9 77.5m-6.7 0a6.7 6.7 0 1 0 13.4 0 6.7 6.7 0 1 0-13.4 0Z" fill="#333333" p-id="4467"></path><path d="M493.3 73.7m-6.7 0a6.7 6.7 0 1 0 13.4 0 6.7 6.7 0 1 0-13.4 0Z" fill="#333333" p-id="4468"></path><path d="M502.8 78.5m-6.7 0a6.7 6.7 0 1 0 13.4 0 6.7 6.7 0 1 0-13.4 0Z" fill="#333333" p-id="4469"></path><path d="M901.3 476h-13.5c-2.6 0-4.7-2.1-4.7-4.7s2.1-4.7 4.7-4.7h13.5c2.6 0 4.7 2.1 4.7 4.7s-2.1 4.7-4.7 4.7z" fill="#333333" p-id="4470"></path><path d="M889.2 466m-3.9 0a3.9 3.9 0 1 0 7.8 0 3.9 3.9 0 1 0-7.8 0Z" fill="#333333" p-id="4471"></path><path d="M894.6 463.9m-3.9 0a3.9 3.9 0 1 0 7.8 0 3.9 3.9 0 1 0-7.8 0Z" fill="#333333" p-id="4472"></path><path d="M900 466.6m-3.9 0a3.9 3.9 0 1 0 7.8 0 3.9 3.9 0 1 0-7.8 0Z" fill="#333333" p-id="4473"></path><path d="M946.5 593h-10c-1.9 0-3.5-1.6-3.5-3.5s1.6-3.5 3.5-3.5h10c1.9 0 3.5 1.6 3.5 3.5s-1.6 3.5-3.5 3.5z" fill="#333333" p-id="4474"></path><path d="M937.6 585.6m-2.8 0a2.8 2.8 0 1 0 5.6 0 2.8 2.8 0 1 0-5.6 0Z" fill="#333333" p-id="4475"></path><path d="M941.6 584m-2.8 0a2.8 2.8 0 1 0 5.6 0 2.8 2.8 0 1 0-5.6 0Z" fill="#333333" p-id="4476"></path><path d="M945.6 586m-2.8 0a2.8 2.8 0 1 0 5.6 0 2.8 2.8 0 1 0-5.6 0Z" fill="#333333" p-id="4477"></path><path d="M285 792h-30c-2.8 0-5-2.3-5-5 0-2.8 2.3-5 5-5h30c2.8 0 5 2.3 5 5 0 2.8-2.2 5-5 5zM285 698h-30c-2.8 0-5-2.3-5-5 0-2.8 2.3-5 5-5h30c2.8 0 5 2.3 5 5 0 2.8-2.2 5-5 5zM285 614h-30c-2.8 0-5-2.3-5-5 0-2.8 2.3-5 5-5h30c2.8 0 5 2.3 5 5 0 2.8-2.2 5-5 5zM285 530h-30c-2.8 0-5-2.3-5-5 0-2.8 2.3-5 5-5h30c2.8 0 5 2.3 5 5 0 2.8-2.2 5-5 5zM285 446h-30c-2.8 0-5-2.3-5-5 0-2.8 2.3-5 5-5h30c2.8 0 5 2.3 5 5 0 2.8-2.2 5-5 5zM285 362h-30c-2.8 0-5-2.3-5-5 0-2.8 2.3-5 5-5h30c2.8 0 5 2.3 5 5 0 2.8-2.2 5-5 5zM285 278h-30c-2.8 0-5-2.3-5-5 0-2.8 2.3-5 5-5h30c2.8 0 5 2.3 5 5 0 2.8-2.2 5-5 5zM261 740h-30c-2.8 0-5-2.3-5-5 0-2.8 2.3-5 5-5h30c2.8 0 5 2.3 5 5 0 2.8-2.2 5-5 5zM261 656h-30c-2.8 0-5-2.3-5-5 0-2.8 2.3-5 5-5h30c2.8 0 5 2.3 5 5 0 2.8-2.2 5-5 5zM261 572h-30c-2.8 0-5-2.3-5-5 0-2.8 2.3-5 5-5h30c2.8 0 5 2.3 5 5 0 2.8-2.2 5-5 5zM261 488h-30c-2.8 0-5-2.3-5-5 0-2.8 2.3-5 5-5h30c2.8 0 5 2.3 5 5 0 2.8-2.2 5-5 5zM261 404h-30c-2.8 0-5-2.3-5-5 0-2.8 2.3-5 5-5h30c2.8 0 5 2.3 5 5 0 2.8-2.2 5-5 5zM261 320h-30c-2.8 0-5-2.3-5-5 0-2.8 2.3-5 5-5h30c2.8 0 5 2.3 5 5 0 2.8-2.2 5-5 5zM261 236h-30c-2.8 0-5-2.3-5-5 0-2.8 2.3-5 5-5h30c2.8 0 5 2.3 5 5 0 2.8-2.2 5-5 5zM283 161h-50c-2.8 0-5-2.3-5-5 0-2.8 2.3-5 5-5h50c2.8 0 5 2.3 5 5 0 2.8-2.2 5-5 5zM258 143h-48c-2.8 0-5-2.3-5-5 0-2.8 2.3-5 5-5h48c2.8 0 5 2.3 5 5 0 2.8-2.2 5-5 5z" fill="#333333" p-id="4478"></path><path d="M211.5 133c-3.6 0-6.5 2.9-6.5 6.5v781c0 3.6 2.9 6.5 6.5 6.5s6.5-2.9 6.5-6.5v-781c0-3.6-2.9-6.5-6.5-6.5zM253 188v-50c0-2.8 2.3-5 5-5 2.8 0 5 2.3 5 5v50c0 2.8-2.3 5-5 5s-5-2.2-5-5zM729 244h-50c-2.8 0-5-2.3-5-5 0-2.8 2.3-5 5-5h50c2.8 0 5 2.3 5 5 0 2.8-2.2 5-5 5zM704 224h-81c-2.8 0-5-2.3-5-5 0-2.8 2.3-5 5-5h81c2.8 0 5 2.3 5 5 0 2.8-2.2 5-5 5z" fill="#333333" p-id="4479"></path><path d="M624.5 214c-3.6 0-6.5 2.9-6.5 6.5v700c0 3.6 2.9 6.5 6.5 6.5s6.5-2.9 6.5-6.5v-700c0-3.6-2.9-6.5-6.5-6.5zM699 271v-50c0-2.8 2.3-5 5-5 2.8 0 5 2.3 5 5v50c0 2.8-2.3 5-5 5s-5-2.2-5-5z" fill="#333333" p-id="4480"></path><path d="M272 765h18" fill="#333333" p-id="4481"></path><path d="M272 779h18" fill="#333333" p-id="4482"></path><path d="M289 779v-14M272 671h18" fill="#333333" p-id="4483"></path><path d="M272 685h18" fill="#333333" p-id="4484"></path><path d="M289 685v-14M272 587h18" fill="#333333" p-id="4485"></path><path d="M272 601h18" fill="#333333" p-id="4486"></path><path d="M289 601v-14M272 503h18" fill="#333333" p-id="4487"></path><path d="M272 517h18" fill="#333333" p-id="4488"></path><path d="M289 517v-14M272 419h18" fill="#333333" p-id="4489"></path><path d="M272 433h18" fill="#333333" p-id="4490"></path><path d="M289 433v-14M272 335h18" fill="#333333" p-id="4491"></path><path d="M272 349h18" fill="#333333" p-id="4492"></path><path d="M289 349v-14M272 251h18" fill="#333333" p-id="4493"></path><path d="M272 265h18" fill="#333333" p-id="4494"></path><path d="M289 265v-14M244 209h-18" fill="#333333" p-id="4495"></path><path d="M244 223h-18" fill="#333333" p-id="4496"></path><path d="M227 223v-14M244 293h-18" fill="#333333" p-id="4497"></path><path d="M244 307h-18" fill="#333333" p-id="4498"></path><path d="M227 307v-14M244 377h-18" fill="#333333" p-id="4499"></path><path d="M244 391h-18" fill="#333333" p-id="4500"></path><path d="M227 391v-14M244 461h-18" fill="#333333" p-id="4501"></path><path d="M244 475h-18" fill="#333333" p-id="4502"></path><path d="M227 475v-14" fill="#333333" p-id="4503"></path><path d="M244 545h-18" fill="#333333" p-id="4504"></path><path d="M244 559h-18" fill="#333333" p-id="4505"></path><path d="M227 559v-14" fill="#333333" p-id="4506"></path><path d="M244 629h-18" fill="#333333" p-id="4507"></path><path d="M244 643h-18" fill="#333333" p-id="4508"></path><path d="M227 643v-14" fill="#333333" p-id="4509"></path><path d="M244 713h-18" fill="#333333" p-id="4510"></path><path d="M244 727h-18" fill="#333333" p-id="4511"></path><path d="M227 727v-14" fill="#333333" p-id="4512"></path><path d="M766 889H641l-3 34h131z" fill="#333333" p-id="4513"></path><path d="M646.5 859c-3.5 9.6-5.5 20.1-5.5 31h125c0-10.9-1.9-21.4-5.5-31h-114z" fill="#333333" p-id="4514"></path><path d="M648 499h111v361H648z" fill="#333333" p-id="4515"></path><path d="M646 687h115v15H646zM646 738h115v15H646zM646 788h115v15H646zM646 636h115v15H646zM646 588h115v15H646zM646 544h115v15H646zM646 502h115v15H646zM764 633h-32c-0.5 0-1-0.5-1-1s0.5-1 1-1h32c0.5 0 1 0.5 1 1s-0.5 1-1 1zM764 632v-7M765 624.5h-7M764 585h-32c-0.5 0-1-0.5-1-1s0.5-1 1-1h32c0.5 0 1 0.5 1 1s-0.5 1-1 1zM764 584v-7M765 576.5h-7M750 466h-32c-0.5 0-1-0.5-1-1s0.5-1 1-1h32c0.5 0 1 0.5 1 1s-0.5 1-1 1zM750 465v-7M751 457.5h-7M744 400h-32c-0.5 0-1-0.5-1-1s0.5-1 1-1h32c0.5 0 1 0.5 1 1s-0.5 1-1 1zM744 399v-7M745 391.5h-7M739 362h-32c-0.5 0-1-0.5-1-1s0.5-1 1-1h32c0.5 0 1 0.5 1 1s-0.5 1-1 1zM739 361v-7M740 353.5h-7M643 628h32c0.5 0 1-0.5 1-1s-0.5-1-1-1h-32c-0.5 0-1 0.5-1 1s0.5 1 1 1zM643 627v-7M642 619.5h7M643 582h32c0.5 0 1-0.5 1-1s-0.5-1-1-1h-32c-0.5 0-1 0.5-1 1s0.5 1 1 1zM643 581v-7M642 573.5h7M643 539h32c0.5 0 1-0.5 1-1s-0.5-1-1-1h-32c-0.5 0-1 0.5-1 1s0.5 1 1 1zM643 538v-7M642 530.5h7M657 448h32c0.5 0 1-0.5 1-1s-0.5-1-1-1h-32c-0.5 0-1 0.5-1 1s0.5 1 1 1zM657 447v-7M656 439.5h7M657 415h32c0.5 0 1-0.5 1-1s-0.5-1-1-1h-32c-0.5 0-1 0.5-1 1s0.5 1 1 1zM657 414v-7M656 406.5h7M666 342h32c0.5 0 1-0.5 1-1s-0.5-1-1-1h-32c-0.5 0-1 0.5-1 1s0.5 1 1 1zM666 341v-7M665 333.5h7M668 305h32c0.5 0 1-0.5 1-1s-0.5-1-1-1h-32c-0.5 0-1 0.5-1 1s0.5 1 1 1zM668 304v-7M667 296.5h7M745 466h-83l-14 33h111z" fill="#333333" p-id="4516"></path><path d="M662 406h83v60h-83zM671 312h65v30h-65zM733 378h-59l-12 28h83z" fill="#333333" p-id="4517"></path><path d="M703.5 253c-16.2 0-29.5 13.3-29.5 29.5v98c0 16.2 13.3 29.5 29.5 29.5s29.5-13.3 29.5-29.5v-98c0-16.2-13.3-29.5-29.5-29.5z" fill="#333333" p-id="4518"></path><path d="M319 832h78v93h-78zM389 803h-62l-8 29h78z" fill="#333333" p-id="4519"></path><path d="M327 767h62v37h-62z" fill="#333333" p-id="4520"></path><path d="M371 741h-26l-18 27h62z" fill="#333333" p-id="4521"></path><path d="M345 517h26v226h-26z" fill="#333333" p-id="4522"></path><path d="M364 496m-13 0a13 13 0 1 0 26 0 13 13 0 1 0-26 0Z" fill="#333333" p-id="4523"></path><path d="M371 482m-16 0a16 16 0 1 0 32 0 16 16 0 1 0-32 0Z" fill="#333333" p-id="4524"></path><path d="M383 464m-16 0a16 16 0 1 0 32 0 16 16 0 1 0-32 0Z" fill="#333333" p-id="4525"></path><path d="M402 452m-16 0a16 16 0 1 0 32 0 16 16 0 1 0-32 0Z" fill="#333333" p-id="4526"></path><path d="M420 441m-16 0a16 16 0 1 0 32 0 16 16 0 1 0-32 0Z" fill="#333333" p-id="4527"></path><path d="M441.1 433.1m-16 0a16 16 0 1 0 32 0 16 16 0 1 0-32 0Z" fill="#333333" p-id="4528"></path><path d="M442.1 466.1m-16 0a16 16 0 1 0 32 0 16 16 0 1 0-32 0Z" fill="#333333" p-id="4529"></path><path d="M460.1 461.1m-16 0a16 16 0 1 0 32 0 16 16 0 1 0-32 0Z" fill="#333333" p-id="4530"></path><path d="M482.1 452.1m-16 0a16 16 0 1 0 32 0 16 16 0 1 0-32 0Z" fill="#333333" p-id="4531"></path><path d="M487.1 457.1m-16 0a16 16 0 1 0 32 0 16 16 0 1 0-32 0Z" fill="#333333" p-id="4532"></path><path d="M436.1 448.1m-16 0a16 16 0 1 0 32 0 16 16 0 1 0-32 0Z" fill="#333333" p-id="4533"></path><path d="M460.1 433.1m-16 0a16 16 0 1 0 32 0 16 16 0 1 0-32 0Z" fill="#333333" p-id="4534"></path><path d="M460.1 423.1m-16 0a16 16 0 1 0 32 0 16 16 0 1 0-32 0Z" fill="#333333" p-id="4535"></path><path d="M483.1 418.1m-16 0a16 16 0 1 0 32 0 16 16 0 1 0-32 0Z" fill="#333333" p-id="4536"></path><path d="M479.1 429.1m-16 0a16 16 0 1 0 32 0 16 16 0 1 0-32 0Z" fill="#333333" p-id="4537"></path><path d="M501.1 431.1m-16 0a16 16 0 1 0 32 0 16 16 0 1 0-32 0Z" fill="#333333" p-id="4538"></path><path d="M500.1 440.1m-16 0a16 16 0 1 0 32 0 16 16 0 1 0-32 0Z" fill="#333333" p-id="4539"></path><path d="M525.1 447.1m-16 0a16 16 0 1 0 32 0 16 16 0 1 0-32 0Z" fill="#333333" p-id="4540"></path><path d="M525.1 435.1m-16 0a16 16 0 1 0 32 0 16 16 0 1 0-32 0Z" fill="#333333" p-id="4541"></path><path d="M508.1 452.1m-16 0a16 16 0 1 0 32 0 16 16 0 1 0-32 0Z" fill="#333333" p-id="4542"></path><path d="M510.1 455.1m-16 0a16 16 0 1 0 32 0 16 16 0 1 0-32 0Z" fill="#333333" p-id="4543"></path><path d="M525.1 417.1m-16 0a16 16 0 1 0 32 0 16 16 0 1 0-32 0Z" fill="#333333" p-id="4544"></path><path d="M506.1 410.1m-16 0a16 16 0 1 0 32 0 16 16 0 1 0-32 0Z" fill="#333333" p-id="4545"></path><path d="M420 471m-16 0a16 16 0 1 0 32 0 16 16 0 1 0-32 0Z" fill="#333333" p-id="4546"></path><path d="M399 480m-16 0a16 16 0 1 0 32 0 16 16 0 1 0-32 0Z" fill="#333333" p-id="4547"></path><path d="M380 489m-16 0a16 16 0 1 0 32 0 16 16 0 1 0-32 0Z" fill="#333333" p-id="4548"></path><path d="M1007 933H17c-2.7 0-5-2.3-5-5 0-2.8 2.2-5 5-5h990c2.8 0 5 2.3 5 5 0 2.8-2.2 5-5 5zM644 957H54c-2.8 0-5-2.3-5-5 0-2.8 2.2-5 5-5h590c2.8 0 5 2.3 5 5 0 2.8-2.2 5-5 5zM958 957H704c-2.8 0-5-2.3-5-5 0-2.8 2.3-5 5-5h254c2.8 0 5 2.3 5 5 0 2.8-2.2 5-5 5zM684 957h-17c-2.8 0-5-2.3-5-5 0-2.8 2.3-5 5-5h17c2.8 0 5 2.3 5 5 0 2.8-2.2 5-5 5zM1002 909h-47c-2.8 0-5-2.3-5-5 0-2.8 2.3-5 5-5h47c2.8 0 5 2.3 5 5 0 2.8-2.2 5-5 5zM66 909H38c-2.8 0-5-2.3-5-5 0-2.8 2.2-5 5-5h28c2.7 0 5 2.3 5 5 0 2.8-2.2 5-5 5zM23 909c-2.8 0-5-2.3-5-5 0-2.8 2.2-5 5-5 2.7 0 5 2.3 5 5 0 2.8-2.2 5-5 5z" fill="#333333" p-id="4549"></path></svg>